<svg width="19" height="11" viewBox="0 0 19 11" fill="none" xmlns="http://www.w3.org/2000/svg">
<rect width="18.8589" height="10.7019" fill="#FAFAF3"/>
<path d="M9.53043 10.7019C8.87228 10.622 8.21865 10.4469 7.56952 10.1765C6.92039 9.906 6.33707 9.51519 5.81955 9.00403C5.30203 8.49287 4.87781 7.84616 4.54688 7.06389C4.21595 6.28163 4.0374 5.34045 4.01122 4.24035L4 3.71311L4.51602 3.72433C4.96698 3.73555 5.46337 3.81838 6.0052 3.97281C6.54703 4.12725 7.02959 4.33834 7.45287 4.60607C7.53589 3.82232 7.75875 3.00827 8.12146 2.16393C8.48417 1.3196 8.92017 0.598288 9.42946 0C9.93875 0.598288 10.3748 1.32147 10.7375 2.16954C11.1002 3.01762 11.323 3.83353 11.406 4.61729C11.8181 4.36077 12.2913 4.15062 12.8257 3.98684C13.36 3.82305 13.862 3.73555 14.3317 3.72433L14.8589 3.71311L14.8477 4.25157C14.8327 5.24696 14.685 6.11616 14.4046 6.85915C14.1241 7.60215 13.7457 8.23296 13.2694 8.75161C12.793 9.27025 12.2362 9.68811 11.599 10.0052C10.9618 10.3223 10.2723 10.5545 9.53043 10.7019ZM9.51248 9.80893C9.40553 8.19504 8.92671 6.9749 8.07602 6.14851C7.22533 5.32212 6.16803 4.8117 4.90415 4.61726C5.01109 6.27976 5.50449 7.51934 6.38435 8.33601C7.26421 9.15268 8.30692 9.64365 9.51248 9.80893ZM9.42946 6.4862C9.56781 6.25735 9.74057 6.01934 9.94773 5.77217C10.1549 5.525 10.3613 5.31504 10.567 5.14228C10.555 4.56568 10.4494 3.96383 10.2501 3.33675C10.0507 2.70966 9.77721 2.1037 9.42946 1.51887C9.0817 2.1037 8.80817 2.70966 8.60886 3.33675C8.40956 3.96383 8.30392 4.56568 8.29196 5.14228C8.49762 5.31504 8.70459 5.525 8.91287 5.77217C9.12115 6.01934 9.29335 6.25735 9.42946 6.4862ZM10.3875 9.58008C10.7958 9.44472 11.2019 9.25775 11.6057 9.01918C12.0096 8.78061 12.3783 8.46651 12.7118 8.07687C13.0454 7.68723 13.3247 7.20935 13.5498 6.64322C13.7749 6.07709 13.9099 5.40177 13.9548 4.61726C13.0259 4.75337 12.2051 5.07121 11.4924 5.57079C10.7797 6.07036 10.2498 6.69408 9.90284 7.44195C10.0195 7.75306 10.1173 8.08025 10.1962 8.42351C10.2751 8.76678 10.3388 9.1523 10.3875 9.58008Z" fill="#4A663E"/>
</svg>
